<svg width="1280" height="960" viewBox="0 0 1280 960" fill="none" xmlns="http://www.w3.org/2000/svg" role="img" aria-labelledby="serviceautoPreviewTitle serviceautoPreviewDesc">
  <title id="serviceautoPreviewTitle">ServiceAuto desktop preview</title>
  <desc id="serviceautoPreviewDesc">Premium desktop preview for the ServiceAuto project card.</desc>
  <rect width="1280" height="960" rx="40" fill="#08090B"/>
  <rect x="28" y="28" width="1224" height="904" rx="32" fill="url(#bg)"/>
  <rect x="70" y="70" width="1140" height="66" rx="22" fill="rgba(255,255,255,0.05)"/>
  <circle cx="112" cy="103" r="8" fill="#F87171"/>
  <circle cx="138" cy="103" r="8" fill="#FBBF24"/>
  <circle cx="164" cy="103" r="8" fill="#34D399"/>
  <rect x="214" y="86" width="190" height="34" rx="17" fill="rgba(255,255,255,0.06)"/>
  <rect x="886" y="86" width="118" height="34" rx="17" fill="rgba(255,255,255,0.06)"/>
  <rect x="1022" y="86" width="146" height="34" rx="17" fill="url(#accent)"/>
  <rect x="70" y="170" width="1140" height="324" rx="34" fill="url(#hero)"/>
  <g opacity="0.5">
    <path d="M878 213C908 241 930 276 939 321C948 366 943 418 922 456" stroke="#9DD6DF" stroke-width="2"/>
    <path d="M910 200C947 230 974 270 986 319C998 368 993 423 969 468" stroke="#9DD6DF" stroke-width="2" stroke-dasharray="10 10"/>
  </g>
  <rect x="114" y="216" width="154" height="30" rx="15" fill="rgba(157,214,223,0.16)"/>
  <rect x="114" y="276" width="488" height="84" rx="18" fill="rgba(255,255,255,0.06)"/>
  <rect x="114" y="382" width="420" height="18" rx="9" fill="rgba(255,255,255,0.14)"/>
  <rect x="114" y="414" width="348" height="18" rx="9" fill="rgba(255,255,255,0.08)"/>
  <rect x="114" y="452" width="176" height="22" rx="11" fill="#D6E6EA"/>
  <rect x="720" y="226" width="392" height="242" rx="28" fill="rgba(7,11,14,0.66)" stroke="rgba(255,255,255,0.08)"/>
  <rect x="748" y="252" width="336" height="152" rx="22" fill="url(#carGlow)"/>
  <path d="M806 350C822 314 850 293 895 287H946C970 287 992 298 1007 318L1030 350V381C1030 391 1022 399 1012 399H1004C998 421 981 434 958 434C935 434 918 421 912 399H865C859 421 842 434 819 434C796 434 779 421 773 399H766C756 399 748 391 748 381V354L774 327C786 314 795 307 806 350Z" fill="#DCEFF3" fill-opacity="0.9"/>
  <circle cx="821" cy="399" r="30" fill="#101518"/>
  <circle cx="958" cy="399" r="30" fill="#101518"/>
  <circle cx="821" cy="399" r="13" fill="#8FD6E0"/>
  <circle cx="958" cy="399" r="13" fill="#8FD6E0"/>
  <rect x="70" y="530" width="548" height="332" rx="32" fill="rgba(255,255,255,0.04)" stroke="rgba(255,255,255,0.08)"/>
  <rect x="662" y="530" width="548" height="332" rx="32" fill="rgba(255,255,255,0.04)" stroke="rgba(255,255,255,0.08)"/>
  <rect x="108" y="572" width="184" height="26" rx="13" fill="rgba(255,255,255,0.08)"/>
  <rect x="108" y="624" width="472" height="20" rx="10" fill="rgba(255,255,255,0.14)"/>
  <rect x="108" y="662" width="430" height="16" rx="8" fill="rgba(255,255,255,0.08)"/>
  <rect x="108" y="706" width="146" height="74" rx="22" fill="url(#accentSoft)"/>
  <rect x="278" y="706" width="146" height="74" rx="22" fill="rgba(255,255,255,0.05)"/>
  <rect x="448" y="706" width="132" height="74" rx="22" fill="rgba(255,255,255,0.05)"/>
  <rect x="700" y="572" width="202" height="26" rx="13" fill="rgba(255,255,255,0.08)"/>
  <rect x="700" y="624" width="202" height="190" rx="28" fill="rgba(255,255,255,0.05)"/>
  <rect x="928" y="624" width="244" height="56" rx="20" fill="rgba(255,255,255,0.06)"/>
  <rect x="928" y="698" width="244" height="56" rx="20" fill="rgba(255,255,255,0.06)"/>
  <rect x="928" y="772" width="244" height="42" rx="20" fill="url(#accent)"/>
  <defs>
    <linearGradient id="bg" x1="100" y1="86" x2="1135" y2="933" gradientUnits="userSpaceOnUse">
      <stop stop-color="#141518"/>
      <stop offset="0.52" stop-color="#0F1114"/>
      <stop offset="1" stop-color="#090A0C"/>
    </linearGradient>
    <linearGradient id="hero" x1="101" y1="192" x2="1139" y2="509" gradientUnits="userSpaceOnUse">
      <stop stop-color="#172228"/>
      <stop offset="0.56" stop-color="#10181D"/>
      <stop offset="1" stop-color="#0B0E11"/>
    </linearGradient>
    <linearGradient id="accent" x1="1022" y1="86" x2="1168" y2="120" gradientUnits="userSpaceOnUse">
      <stop stop-color="#9DD6DF"/>
      <stop offset="1" stop-color="#C3EBF2"/>
    </linearGradient>
    <linearGradient id="accentSoft" x1="108" y1="706" x2="254" y2="780" gradientUnits="userSpaceOnUse">
      <stop stop-color="#88C8D2"/>
      <stop offset="1" stop-color="#5E8F97"/>
    </linearGradient>
    <radialGradient id="carGlow" cx="0" cy="0" r="1" gradientUnits="userSpaceOnUse" gradientTransform="translate(916 328) rotate(90) scale(144 212)">
      <stop stop-color="#21414A"/>
      <stop offset="1" stop-color="#0D1317"/>
    </radialGradient>
  </defs>
</svg>
